# File produced by Open Asset Import Library (http://www.assimp.sf.net)
# (assimp v3.1.95221606)

mtllib Block3x1.mtl

# vertex positions
v 1.213200 0.498494 -0.337436
v 1.499110 0.495409 -0.307221
v 1.497824 0.471570 -0.374373
v 1.262014 0.438065 -0.497391
v 0.915413 0.452646 -0.498067
v 0.604781 0.475605 -0.478764
v 0.839719 0.499962 -0.381076
v 0.250790 0.499997 -0.454784
v 0.440297 0.498863 -0.437449
v 0.553690 0.448183 -0.499981
v 0.182109 0.434997 -0.500000
v 1.498966 0.425918 -0.425804
v 1.436422 0.390579 -0.499278
v 1.492819 0.367412 0.464072
v 1.494691 -0.374152 0.393766
v 1.500000 0.078771 0.384927
v 1.500000 0.250160 0.383154
v 1.500000 0.224735 0.097235
v 1.500000 0.037415 0.099454
v 1.500000 0.035394 -0.218090
v 1.500000 0.222306 -0.199541
v 1.499889 0.493895 -0.172588
v 1.499169 0.496925 0.093984
v 1.491950 0.499102 0.380236
v 1.500000 0.341787 -0.332310
v 1.499747 -0.494037 0.106363
v 1.499996 -0.488055 -0.270039
v 1.500000 0.149229 -0.362867
v 1.500000 0.229390 -0.464817
v 1.462915 0.297487 -0.496563
v 1.498673 -0.355581 -0.467019
v 1.439500 -0.344015 -0.496259
v 1.497368 -0.433437 -0.394952
v 1.376834 -0.499950 -0.334166
v 0.023500 -0.497357 -0.498658
v -1.275571 -0.459398 -0.497731
v -1.485028 0.243414 -0.488274
v -1.202637 0.436548 -0.499999
v -1.405743 0.498744 -0.374423
v -1.283610 0.494469 -0.436121
v -1.188850 0.495129 0.344505
v -1.397961 0.497698 0.324398
v 0.479171 0.477363 0.494494
v 1.361342 0.471519 0.498652
v 1.439604 0.358043 0.499869
v -1.443182 0.386984 0.448933
v -1.390810 0.344133 0.499407
v 1.331746 -0.436820 0.490958
v 1.275633 -0.494605 0.435184
v -0.250812 -0.428167 0.499994
v -1.389444 -0.435535 0.494356
v -1.500000 0.239449 0.383564
v -1.496668 -0.393565 0.395538
v -1.499452 -0.418704 0.333181
v -1.375773 -0.497075 0.431024
v -1.447327 -0.495243 0.276295
v -1.499975 -0.417102 -0.319966
v -1.444979 -0.498345 -0.349187
v -1.322577 -0.497904 -0.451138

# UV coordinates
vt 0.316364 0.778219
vt 0.245773 0.743428
vt 0.257380 0.739897
vt 0.319683 0.750889
vt 0.398733 0.764567
vt 0.464896 0.764795
vt 0.407970 0.790530
vt 0.539034 0.761690
vt 0.497825 0.771686
vt 0.477804 0.755762
vt 0.552204 0.738465
vt 0.264172 0.732609
vt 0.283431 0.731150
vt 0.063629 0.585950
vt 0.180051 0.528263
vt 0.113854 0.578892
vt 0.088677 0.607499
vt 0.154075 0.671996
vt 0.165733 0.629148
vt 0.222140 0.661920
vt 0.213295 0.694115
vt 0.216102 0.752704
vt 0.166574 0.768318
vt 0.093541 0.726913
vt 0.242116 0.718263
vt 0.226189 0.545342
vt 0.273554 0.595865
vt 0.248606 0.688672
vt 0.270293 0.705507
vt 0.279828 0.717383
vt 0.292869 0.629525
vt 0.304138 0.634019
vt 0.286000 0.614226
vt 0.297904 0.596079
vt 0.548058 0.521495
vt 0.789950 0.403257
vt 0.897957 0.567553
vt 0.852659 0.639638
vt 0.904757 0.660496
vt 0.874793 0.654874
vt 0.893820 0.852453
vt 0.938635 0.835592
vt 0.458274 0.999999
vt 0.149778 0.844211
vt 0.000001 0.526115
vt 0.040671 0.554222
vt 0.660274 0.000001
vt 0.641674 0.035658
vt 0.621006 0.043785
vt 0.557301 0.018839
vt 0.171440 0.232717
vt 0.193294 0.487292
vt 0.212424 0.478738
vt 0.464303 0.309732
vt 0.669462 0.202696
vt 0.667754 0.063003
vt 0.694465 0.198948
vt 0.707464 0.208040
vt 0.676723 0.217759
vt 0.709137 0.233710
vt 0.854024 0.025575
vt 0.881910 0.095002
vt 0.817473 0.291972
vt 0.843138 0.371561
vt 0.804621 0.347399
vt 0.790764 0.383893

# vertex normals
vn 0.042653 0.939196 -0.340723
vn 0.045835 0.936033 -0.348915
vn 0.044017 0.935246 -0.351250
vn 0.044017 0.935246 -0.351250
vn -0.017219 0.598193 -0.801167
vn -0.003431 0.615925 -0.787798
vn -0.003431 0.615925 -0.787797
vn 0.221969 0.764692 -0.604959
vn 0.997377 0.017050 0.070338
vn 0.993472 -0.006512 0.113890
vn 0.994186 -0.003115 0.107627
vn 0.999930 0.009770 0.006703
vn 0.999918 0.010585 0.007263
vn 0.999966 -0.003843 0.007267
vn 0.999960 -0.004198 0.007937
vn 1.000000 -0.000198 0.000272
vn 1.000000 -0.000203 0.000280
vn 0.999999 0.000902 0.000678
vn 0.999999 0.000956 0.000719
vn 0.999998 0.001677 0.001262
vn 0.999783 0.017179 0.011786
vn 0.998616 0.032777 0.041129
vn 0.999862 0.013757 -0.009277
vn 0.999986 0.004350 -0.002949
vn 0.999989 0.003964 -0.002690
vn 0.999931 -0.005484 0.010368
vn 1.000000 -0.000259 0.000357
vn 0.999991 0.003133 -0.002657
vn 0.999997 0.001935 -0.001641
vn 0.999999 0.000867 -0.000735
vn 0.740905 0.152396 -0.654091
vn 0.529624 -0.009372 -0.848181
vn 0.529625 -0.009372 -0.848180
vn 0.999985 -0.003517 0.004304
vn 0.999995 -0.002743 -0.001663
vn 0.999970 -0.001992 -0.007456
vn 0.999995 0.002568 -0.001751
vn 1.000000 0.000000 0.000000
vn 0.999941 -0.001568 -0.010721
vn 0.287007 -0.875466 -0.388827
vn 0.098350 -0.717538 -0.689541
vn 0.098349 -0.717538 -0.689541
vn 0.080597 -0.733705 -0.674672
vn 0.080597 -0.733705 -0.674671
vn 0.001565 -0.002277 -0.999996
vn -0.042098 0.000898 -0.999113
vn -0.000374 -0.001927 -0.999998
vn -0.361465 0.458634 -0.811787
vn -0.005688 0.663460 -0.748190
vn 0.020509 0.999789 -0.001161
vn 0.003326 0.999922 0.012080
vn -0.002842 0.999727 0.023182
vn 0.000914 0.999656 0.026197
vn 0.009606 0.999891 0.011189
vn -0.217811 0.975906 -0.012916
vn -0.006622 0.999467 0.031950
vn 0.529885 0.425524 0.733588
vn -0.047883 0.749825 0.659902
vn -0.051546 0.747884 0.661825
vn 0.541628 -0.080505 0.836755
vn -0.026564 -0.007602 0.999618
vn 0.501749 -0.796389 0.337658
vn -0.060316 -0.060104 0.996368
vn 0.041224 -0.027166 0.998781
vn 0.002328 0.004197 0.999988
vn 0.002328 0.004197 0.999988
vn -0.004909 -0.006486 0.999967
vn -0.709568 -0.038476 0.703586
vn -0.704392 0.001137 0.709810
vn -0.704392 0.001137 0.709811
vn -0.662808 -0.642023 0.385346
vn -0.668945 -0.679507 0.301303
vn 0.000010 -0.707501 0.706712
vn -0.929391 0.369013 0.007828
vn -0.952998 0.302607 -0.014990
vn -0.999915 0.000166 -0.013049
vn -0.999739 0.022842 0.000857
vn -0.631420 -0.175712 -0.755271
vn -0.632677 -0.147555 -0.760228
vn -0.022650 -0.759300 -0.650346
vn -0.827474 -0.561504 -0.000522
vn -0.827474 -0.561503 -0.000522
vn 0.001249 -0.004104 -0.999991
vn 0.003659 0.000137 -0.999993
vn 0.000140 -0.999999 0.001615
vn 0.000810 -0.999999 0.001347
vn 0.004412 -0.999916 0.012190
vn 0.002311 -0.999997 -0.000153

# Mesh
g Block3x1
usemtl initialShadingGroup
f 5/5/1 1/1/1 2/2/1
f 5/5/1 2/2/1 3/3/1
f 3/3/1 4/4/1 5/5/1
f 5/5/2 6/6/2 7/7/2
f 7/7/2 1/1/2 5/5/2
f 6/6/3 8/8/4 9/9/3
f 6/6/3 9/9/3 7/7/4
f 11/11/5 8/8/5 6/6/5
f 6/6/5 10/10/5 11/11/5
f 6/6/6 5/5/6 10/10/7
f 13/13/8 4/4/8 3/3/8
f 3/3/8 12/12/8 13/13/8
f 17/17/11 14/14/9 15/15/10
f 15/15/10 16/16/10 17/17/11
f 19/19/15 18/18/12 17/17/13
f 17/17/13 16/16/14 19/19/15
f 18/18/19 19/19/16 20/20/17
f 20/20/17 21/21/18 18/18/19
f 23/23/20 18/18/19 21/21/18
f 21/21/18 22/22/20 23/23/20
f 18/18/12 23/23/21 24/24/21
f 24/24/21 17/17/13 18/18/12
f 14/14/9 17/17/11 24/24/22
f 12/12/23 3/3/23 2/2/24
f 2/2/24 25/25/25 12/12/23
f 26/26/26 19/19/15 16/16/14
f 16/16/14 15/15/26 26/26/26
f 26/26/27 27/27/27 20/20/17
f 20/20/17 19/19/16 26/26/27
f 29/29/28 12/12/28 25/25/29
f 25/25/29 28/28/30 29/29/28
f 29/29/31 30/30/31 13/13/31
f 13/13/31 12/12/31 29/29/31
f 30/30/32 29/29/32 31/31/33
f 31/31/33 32/32/32 30/30/32
f 33/33/36 31/31/34 29/29/34
f 29/29/34 28/28/35 33/33/36
f 21/21/37 25/25/25 2/2/24
f 2/2/24 22/22/37 21/21/37
f 20/20/38 28/28/30 25/25/29
f 25/25/29 21/21/38 20/20/38
f 27/27/39 33/33/36 28/28/35
f 28/28/35 20/20/39 27/27/39
f 34/34/40 33/33/40 27/27/40
f 32/32/41 31/31/41 33/33/42
f 33/33/42 34/34/41 32/32/41
f 32/32/43 34/34/44 35/35/44
f 10/10/45 32/32/45 35/35/45
f 35/35/45 11/11/45 10/10/45
f 36/36/46 37/37/46 38/38/46
f 11/11/47 35/35/47 36/36/47
f 36/36/47 38/38/47 11/11/47
f 38/38/48 37/37/48 39/39/48
f 39/39/48 40/40/48 38/38/48
f 38/38/49 40/40/49 8/8/49
f 8/8/49 11/11/49 38/38/49
f 42/42/50 41/41/50 40/40/50
f 40/40/50 39/39/50 42/42/50
f 40/40/51 41/41/51 43/43/51
f 43/43/51 8/8/51 40/40/51
f 9/9/52 8/8/52 43/43/52
f 43/43/52 7/7/52 9/9/52
f 1/1/53 7/7/53 43/43/53
f 43/43/53 22/22/53 1/1/53
f 22/22/54 2/2/54 1/1/54
f 23/23/55 44/44/55 24/24/55
f 23/23/56 22/22/56 43/43/56
f 43/43/56 44/44/56 23/23/56
f 45/46/57 14/14/57 24/24/57
f 24/24/57 44/45/57 45/46/57
f 41/50/58 42/47/58 46/48/58
f 46/48/58 47/49/58 41/50/58
f 47/49/59 43/51/59 41/50/59
f 14/14/60 45/46/60 48/52/60
f 48/52/60 15/15/60 14/14/60
f 48/52/61 45/46/61 44/45/61
f 49/53/62 26/26/62 15/15/62
f 15/15/62 48/52/62 49/53/62
f 44/45/63 43/51/63 49/53/63
f 49/53/63 48/52/63 44/45/63
f 43/51/64 50/54/64 49/53/64
f 43/51/65 47/49/66 50/54/66
f 47/49/67 51/55/67 50/54/67
f 46/48/68 52/56/68 47/49/68
f 47/49/69 52/56/69 53/57/70
f 53/57/70 51/55/69 47/49/69
f 55/59/71 51/55/71 53/57/71
f 53/57/71 54/58/71 55/59/71
f 55/59/72 54/58/72 56/60/72
f 49/53/73 50/54/73 51/55/73
f 51/55/73 55/59/73 49/53/73
f 46/48/74 42/47/74 39/61/74
f 39/61/74 52/56/74 46/48/74
f 37/62/75 52/56/75 39/61/75
f 54/58/76 53/57/76 52/56/76
f 52/56/76 37/62/76 54/58/76
f 57/63/77 54/58/77 37/62/77
f 58/65/78 57/64/78 37/37/78
f 37/37/78 36/36/78 58/65/78
f 36/36/79 59/66/79 58/65/79
f 36/36/80 35/35/80 59/66/80
f 56/60/82 54/58/81 57/63/81
f 57/63/81 58/65/81 56/60/82
f 30/30/83 32/32/83 4/4/83
f 4/4/83 13/13/83 30/30/83
f 10/10/84 5/5/84 4/4/84
f 4/4/84 32/32/84 10/10/84
f 55/59/85 56/60/85 58/65/85
f 58/65/85 49/53/85 55/59/85
f 58/65/86 59/66/86 35/35/86
f 35/35/86 49/53/86 58/65/86
f 26/26/87 35/35/87 34/34/87
f 34/34/87 27/27/87 26/26/87
f 35/35/88 26/26/88 49/53/88
